<?xml version="1.0" encoding="UTF-8" standalone="no"?>
<!-- Created with Inkscape (http://www.inkscape.org/) -->

<svg
   width="37.14484mm"
   height="53.100861mm"
   viewBox="0 0 37.14484 53.100861"
   version="1.1"
   id="svg5"
   xml:space="preserve"
   inkscape:version="1.2.2 (732a01da63, 2022-12-09)"
   sodipodi:docname="dibujo.svg"
   xmlns:inkscape="http://www.inkscape.org/namespaces/inkscape"
   xmlns:sodipodi="http://sodipodi.sourceforge.net/DTD/sodipodi-0.dtd"
   xmlns="http://www.w3.org/2000/svg"
   xmlns:svg="http://www.w3.org/2000/svg"><style
     id="style869">#path1596, #path1594, #path1590 {  }
</style><sodipodi:namedview
     id="namedview7"
     pagecolor="#ffffff"
     bordercolor="#000000"
     borderopacity="0.25"
     inkscape:showpageshadow="2"
     inkscape:pageopacity="0.0"
     inkscape:pagecheckerboard="0"
     inkscape:deskcolor="#d1d1d1"
     inkscape:document-units="mm"
     showgrid="false"
     inkscape:zoom="1.6286123"
     inkscape:cx="369.02582"
     inkscape:cy="214.29286"
     inkscape:window-width="1920"
     inkscape:window-height="1017"
     inkscape:window-x="-8"
     inkscape:window-y="-8"
     inkscape:window-maximized="1"
     inkscape:current-layer="g1588" /><defs
     id="defs2" /><g
     id="g1588"
     transform="matrix(0.37832957,0,0,0.37832957,-11.68001,-1.7413344)"
     inkscape:groupmode="layer"><path
       style="display:inline;fill:#ffffff;stroke-width:1.58592;stroke-dasharray:none;stroke-opacity:1;paint-order:stroke fill markers"
       d="m 73.073056,32.974536 -3.638021,-0.08172 V 22.581531 c 0,-5.671205 0.04798,-10.311283 0.106632,-10.311283 0.05864,0 1.564249,2.146804 3.345783,4.770676 1.781535,2.623871 3.315248,4.817702 3.408247,4.87518 0.093,0.05748 0.92797,-3.726436 1.855491,-8.408697 0.927518,-4.6822599 1.748824,-8.6855205 1.825127,-8.896134 0.0763,-0.2106136 0.943253,3.4803239 1.926553,8.202083 0.9833,4.721759 1.829443,8.763611 1.880315,8.981892 0.05087,0.218281 1.605851,-1.864822 3.455508,-4.629118 l 3.36301,-5.025992 v 10.516096 10.516097 l -6.945312,-0.05804 c -3.819922,-0.03192 -8.582422,-0.09481 -10.583333,-0.139759 z"
       id="path1596"
       inkscape:export-filename="Kappy_Solo.png"
       inkscape:export-xdpi="70"
       inkscape:export-ydpi="70" /><path
       style="fill:#ffffff;fill-opacity:1;stroke:none;stroke-width:1.58592;stroke-linecap:round;stroke-linejoin:round;stroke-dasharray:none;stroke-opacity:1;paint-order:stroke fill markers"
       d="m 78.888952,144.00763 c -0.548421,-0.52313 -2.572483,-1.89041 -4.497917,-3.03838 -8.943303,-5.33215 -12.526068,-8.2636 -14.883831,-12.17807 -1.388716,-2.30561 -1.977186,-4.48201 -1.985192,-7.34203 l -0.0068,-2.41953 -0.929664,1.45521 c -1.56326,2.44698 -2.101553,4.63113 -2.086649,8.46667 0.0071,1.81901 0.154446,3.78354 0.327506,4.36562 l 0.314656,1.05833 -0.640798,-0.79375 c -1.133497,-1.40405 -3.007851,-4.73284 -3.881774,-6.8939 -1.145806,-2.83338 -1.350472,-5.7928 -0.52904,-7.64978 0.686176,-1.55121 0.703482,-1.99277 0.07811,-1.99277 -1.534005,0 -5.310442,4.43293 -10.764335,12.63559 -1.282651,1.92911 -2.385394,3.45417 -2.450542,3.38902 -0.265006,-0.265 -0.03053,-4.94275 0.364841,-7.27839 0.819783,-4.84289 2.502268,-8.79641 4.877634,-11.46151 1.448445,-1.62512 1.605598,-1.95336 0.715374,-1.49419 -1.396944,0.72054 -3.480417,2.5555 -5.279911,4.65013 -1.665278,1.9384 -2.499815,3.03602 -5.304647,6.97686 -0.462493,0.64982 -0.46365,0.64728 -0.30665,-0.67064 0.60783,-5.1024 3.231843,-12.60808 5.616382,-16.06501 1.036692,-1.50292 1.663535,-2.03894 2.876061,-2.45934 l 1.009702,-0.35009 -0.744828,-0.28622 c -2.273835,-0.87377 -5.327159,0.19306 -8.173765,2.85592 l -1.730289,1.6186 0.467235,-2.60135 c 2.20042,-12.250928 8.199689,-25.268843 18.085142,-39.243256 1.1674,-1.650275 2.450364,-3.655346 2.85103,-4.45571 l 0.728485,-1.455209 0.01318,1.197899 c 0.0072,0.658847 0.206842,1.474388 0.443536,1.812316 0.516916,0.738 1.060841,0.673396 3.493773,-0.414962 l 1.675166,-0.749376 -0.575696,-0.731883 c -0.907825,-1.15411 -2.542499,-1.861296 -4.414368,-1.909723 -1.959855,-0.0507 -2.46131,-0.395287 -2.46131,-1.691338 0,-1.102794 0.392511,-1.776775 2.024847,-3.476874 l 1.153555,-1.201438 -1.192326,-0.3189 c -0.655779,-0.175392 -1.192326,-0.418081 -1.192326,-0.539308 0,-0.60855 2.105472,-3.09054 3.042708,-3.586829 0.582084,-0.308229 1.073458,-0.560417 1.091943,-0.560417 0.01848,0 -0.187874,-1.071562 -0.458576,-2.38125 -0.549821,-2.660105 -0.647647,-6.616292 -0.222877,-9.013385 0.263484,-1.486914 0.993392,-4.077258 1.221463,-4.334806 0.05797,-0.06546 1.40584,1.17738 2.99526,2.761874 l 2.889859,2.880897 2.062297,-0.714637 c 1.134264,-0.393052 3.034949,-0.855065 4.223745,-1.026695 3.715732,-0.536453 7.555685,0.387149 10.148986,2.441083 l 1.020188,0.808003 1.154676,-0.881382 c 3.675978,-2.805938 8.460044,-3.259961 14.235877,-1.351026 l 2.205196,0.728824 2.832006,-2.979306 2.83201,-2.979307 0.55275,1.670558 c 1.17838,3.561387 1.35717,8.71251 0.43452,12.518472 -0.48419,1.99725 -0.48418,1.984375 -8e-4,1.984375 0.58893,0 2.55305,1.900087 3.2548,3.148682 l 0.60618,1.078545 -1.19374,0.319278 -1.19375,0.319275 1.15023,1.229683 c 2.02037,2.159939 2.49697,3.726902 1.45152,4.772347 -0.43528,0.435282 -0.75055,0.515509 -1.52135,0.387139 -1.35715,-0.226015 -3.38468,0.449453 -4.4508,1.482772 -0.48792,0.472909 -0.88712,0.944431 -0.88712,1.047824 0,0.339458 3.98514,1.855327 4.47163,1.700922 0.59606,-0.189182 1.08234,-1.229336 1.09206,-2.335895 0.007,-0.817827 0.0372,-0.794337 0.85989,0.672039 0.46885,0.835718 2.20867,3.500665 3.86625,5.922105 5.1148,7.471809 9.25746,14.804003 11.93888,21.130902 2.21428,5.224653 4.42073,12.705638 5.18889,17.592888 l 0.18644,1.18621 -1.68092,-1.52114 c -2.28623,-2.06892 -4.40074,-3.10304 -6.32007,-3.09087 -0.8135,0.005 -1.77675,0.17953 -2.14055,0.3875 -0.54031,0.30887 -0.57187,0.37984 -0.17228,0.3875 2.38083,0.0456 5.08428,3.98254 7.27393,10.59271 0.98251,2.96603 1.88382,6.89821 1.88004,8.20208 -0.003,1.06253 0.22773,1.29619 -2.34388,-2.3728 -2.7495,-3.92262 -7.87705,-9.00428 -9.08571,-9.00428 -0.13221,0 0.37399,0.68461 1.12489,1.52135 3.29484,3.67154 5.55622,10.72658 5.55622,17.33428 v 2.14859 l -2.46597,-3.69374 c -6.20525,-9.29476 -10.20001,-13.74617 -11.32576,-12.62042 -0.16926,0.16926 -0.0599,0.5971 0.31511,1.23267 1.35071,2.2893 0.88567,5.8378 -1.35628,10.34914 -1.16732,2.34892 -3.72168,6.26024 -3.33763,5.1107 0.39268,-1.1754 0.73532,-5.0298 0.58367,-6.5659 -0.29039,-2.9415 -1.36677,-5.98857 -2.69213,-7.62104 -0.48568,-0.59823 -0.49107,-0.57611 -0.51676,2.11919 -0.0309,3.2431 -0.5384,4.88552 -2.353006,7.61508 -2.363514,3.55523 -6.374555,6.74698 -14.594197,11.61318 -1.768157,1.04679 -3.732688,2.34541 -4.365625,2.88581 l -1.150791,0.98257 z m 22.951708,-32.24849 c 2.39922,-2.25422 3.86906,-9.04918 3.92166,-18.129519 0.03,-5.184976 -0.18972,-6.411769 -1.73001,-9.657291 -0.8774,-1.848752 -1.47289,-2.65154 -3.34637,-4.511268 -1.42236,-1.411925 -2.858121,-2.555655 -3.819606,-3.042708 -1.519391,-0.769667 -1.56005,-0.820417 -2.95692,-3.690816 C 89.524487,63.717042 83.81769,58.928502 78.629306,59.906084 c -2.212258,0.41683 -4.125431,1.536997 -6.307974,3.69333 -2.438897,2.409608 -4.341037,5.194027 -6.225659,9.113337 -1.327909,2.761557 -1.495734,2.98732 -2.630464,3.538614 -4.318751,2.098212 -7.58302,6.310519 -8.892575,11.475236 -0.503152,1.984367 -0.54246,2.676318 -0.402972,7.093645 0.229873,7.279714 0.995665,11.713594 2.554149,14.788364 1.047824,2.06728 1.71739,2.61989 3.318516,2.73884 0.727604,0.0541 10.272815,0.0914 21.211582,0.0829 l 19.888661,-0.0153 z"
       id="path1594"
       inkscape:export-filename="path1594.png"
       inkscape:export-xdpi="70"
       inkscape:export-ydpi="70" /><path
       style="display:inline;fill:#ffffff;fill-opacity:1;stroke:none;stroke-width:0.264583;stroke-opacity:1"
       d="m 63.939536,84.236532 c -1.181701,-0.720484 -1.504352,-1.504698 -1.148837,-2.792272 0.226042,-0.818653 0.203174,-1.143527 -0.114623,-1.628545 -0.218344,-0.333237 -0.513307,-0.605885 -0.655473,-0.605885 -0.576284,0 -0.204991,-0.496049 0.574746,-0.767866 2.136701,-0.744857 4.300458,0.305176 5.135722,2.492277 0.552622,1.44702 0.264837,2.351447 -1.029841,3.236526 -1.070816,0.732039 -1.646425,0.745747 -2.761694,0.06576 z m 29.284472,-0.07395 c -1.845556,-1.243719 -1.620811,-3.521787 0.507116,-5.140206 1.229564,-0.935156 2.239452,-1.093139 3.710263,-0.580411 0.993119,0.346202 1.007478,0.408726 0.237919,1.035987 -0.510927,0.416454 -0.595313,0.739076 -0.595313,2.275969 0,1.740091 -0.02543,1.808004 -0.899022,2.401446 -1.131221,0.768445 -1.828851,0.770146 -2.960963,0.0072 z"
       id="path1590"
       inkscape:transform-center-x="11.026298"
       inkscape:transform-center-y="10.178121"
       sodipodi:nodetypes="sssssssssssssssss" /></g></svg>
